<?xml version="1.0" encoding="UTF-8"?>
<!-- Generator: Adobe Illustrator 17.1.0, SVG Export Plug-In . SVG Version: 6.00 Build 0)  -->
<!DOCTYPE svg PUBLIC "-//W3C//DTD SVG 1.1//EN" "http://www.w3.org/Graphics/SVG/1.1/DTD/svg11.dtd">
<svg version="1.1" nodeId="Layer_1" xmlns="http://www.w3.org/2000/svg" xmlns:xlink="http://www.w3.org/1999/xlink" x="0px" y="0px" viewBox="0 0 52 60" enable-background="new 0 0 210 60" xml:space="preserve">
<g>
	<g>
		<polygon fill="#202A5A" points="49.9,15.3 27,2 2,16 2,44 27,58 51,44 51,16 51,14.8   "/>
		<polygon fill="#2C448A" points="2,16 27,30 51,16 27,2   "/>
		<polygon fill="#283A79" points="51,14.8 43,19 42.9,20.8 27,30 27,58 51,44   "/>
		<polygon fill="#202A5A" points="2,16 2,44 27,58 27,30   "/>
		<polygon fill="#3558A7" points="0,44 0,35 27,51 27,60   "/>
		<polygon fill="#3558A7" points="0,16 0,21 27,37 27,32   "/>
		<polygon fill="#416FB5" points="53,44 53,39 31.1,29.5 27,32 27,36.9 40.3,42.8 27,51 27,60   "/>
		<polygon fill="#477FC1" points="40.3,42.8 38.7,42.2 27,49 2,35 2,33.8 0,35 27,51   "/>
		<polygon fill="#477FC1" points="11.8,18 27,9 43,19 51,14.8 27,0 0,16 27,32 31.1,29.5   "/>
		<polygon fill="#202A5A" points="42.9,20.8 43,19 27,9 11.8,18 13.5,19 27,11   "/>
	</g>
</g>
</svg>