<?xml version="1.0" ?><!DOCTYPE svg  PUBLIC '-//W3C//DTD SVG 1.1//EN'  'http://www.w3.org/Graphics/SVG/1.1/DTD/svg11.dtd'><svg enable-background="new 0 0 512 512" height="512px" nodeId="XML_Extention_1_" version="1.1" viewBox="0 0 512 512" width="512px" xml:space="preserve" xmlns="http://www.w3.org/2000/svg" xmlns:xlink="http://www.w3.org/1999/xlink"><g nodeId="Rectangle_2_9_"><g><polygon fill="#C8C6C6" points="386,25 134,25 134,485 481,485 481,120.604   "/></g></g><g nodeId="Rectangle_4_9_"><g><polygon fill="#E1E0E0" points="387,25 387,120 481,120   "/></g></g><g nodeId="_x3C__x2F__x3E_"><g><path d="M183.813,331.611l87.21-59.884v25.992l-63.954,41.791v0.509l63.954,41.536v25.737l-87.21-59.883V331.611z" fill="#7F7F7F"/><path d="M281.2,417.486l42.515-183.982h15.625l-42.696,183.982H281.2z" fill="#7F7F7F"/><path d="M437.451,350.723l-87.209,56.57v-25.228l69.768-42.3v-0.51l-69.768-42.301v-25.228l87.209,56.57V350.723z" fill="#7F7F7F"/></g></g><g nodeId="Rectangle_1_9_"><g><rect fill="#2E372E" height="108" width="326" x="30" y="48"/></g></g><g nodeId="XML"><g><path d="M144.706,135.471l-5.459-12.458c-2.237-4.799-3.669-8.373-5.37-12.355h-0.179    c-1.253,3.982-2.774,7.556-4.654,12.355l-5.012,12.458h-15.571l17.451-34.82l-16.825-34.003h15.662l5.28,12.56    c1.79,4.187,3.132,7.556,4.564,11.437h0.179c1.432-4.391,2.595-7.454,4.117-11.437l5.101-12.56h15.572l-17.003,33.595    l17.898,35.229H144.706z" fill="#84E403"/><path d="M217.02,109.126c-0.269-8.271-0.537-18.278-0.537-28.285h-0.269c-1.879,8.782-4.385,18.584-6.712,26.651    l-7.338,26.855h-10.649l-6.444-26.651c-1.969-8.067-4.027-17.87-5.459-26.855h-0.179c-0.358,9.292-0.626,19.912-1.074,28.489    l-1.074,26.141h-12.619l3.848-68.823h18.167l5.906,22.975c1.879,7.965,3.759,16.542,5.101,24.609h0.269    c1.7-7.965,3.759-17.053,5.728-24.711l6.443-22.873h17.809l3.312,68.823h-13.334L217.02,109.126z" fill="#84E403"/><path d="M239.935,66.647h13.692V122.4h23.984v13.07h-37.676V66.647z" fill="#84E403"/></g></g></svg>