<?xml version="1.0" encoding="iso-8859-1"?>
<!-- Generator: Adobe Illustrator 16.0.0, SVG Export Plug-In . SVG Version: 6.00 Build 0)  -->
<!DOCTYPE svg PUBLIC "-//W3C//DTD SVG 1.1//EN" "http://www.w3.org/Graphics/SVG/1.1/DTD/svg11.dtd">
<svg xmlns="http://www.w3.org/2000/svg" xmlns:xlink="http://www.w3.org/1999/xlink" version="1.1" id="Capa_1" x="0px" y="0px" width="512px" height="512px" viewBox="0 0 554.625 554.625" style="enable-background:new 0 0 554.625 554.625;" xml:space="preserve">
<g>
	<path d="M497.25,153H57.375C24.862,153,0,177.862,0,210.375V344.25c0,32.513,24.862,57.375,57.375,57.375H497.25   c32.513,0,57.375-24.862,57.375-57.375V210.375C554.625,177.862,529.763,153,497.25,153z M153,344.25h-19.125v-57.375H76.5v57.375   H57.375V210.375H76.5v57.375h57.375v-57.375H153V344.25z M267.75,229.5H229.5v114.75h-19.125V229.5h-38.25v-19.125h95.625V229.5z    M382.5,344.25h-19.125v-95.625l-19.125,38.25h-9.562h-9.562L306,248.625v95.625h-19.125V210.375h9.562H306l28.688,57.375   l28.688-57.375h9.562h9.562V344.25z M497.25,344.25h-95.625V210.375h19.125v114.75h76.5V344.25z" fill="#ffffff"/>
</g>
<g>
</g>
<g>
</g>
<g>
</g>
<g>
</g>
<g>
</g>
<g>
</g>
<g>
</g>
<g>
</g>
<g>
</g>
<g>
</g>
<g>
</g>
<g>
</g>
<g>
</g>
<g>
</g>
<g>
</g>
</svg>
